<?xml version="1.0" encoding="UTF-8"?>
<!DOCTYPE svg PUBLIC "-//W3C//DTD SVG 1.1//EN" "http://www.w3.org/Graphics/SVG/1.1/DTD/svg11.dtd">
<svg xmlns="http://www.w3.org/2000/svg" version="1.1" width="731px" height="182px" style="shape-rendering:geometricPrecision; text-rendering:geometricPrecision; image-rendering:optimizeQuality; fill-rule:evenodd; clip-rule:evenodd" xmlns:xlink="http://www.w3.org/1999/xlink">
<g><path style="opacity:0.999" fill="#b62b19" d="M 155.5,11.5 C 161.161,11.8325 166.495,13.3325 171.5,16C 176.946,21.4459 182.446,26.9459 188,32.5C 191.229,39.2384 192.729,46.2384 192.5,53.5C 193.086,53.2907 193.586,52.9574 194,52.5C 194.241,49.7111 194.908,47.0444 196,44.5C 199.617,39.528 204.284,36.1947 210,34.5C 211.888,34.796 213.722,35.296 215.5,36C 221.41,41.2392 226.577,47.0725 231,53.5C 235.771,48.8992 240.938,48.3992 246.5,52C 251.057,56.0539 255.057,60.5539 258.5,65.5C 262.658,60.5094 267.325,56.0094 272.5,52C 278.146,49.0641 283.48,49.7308 288.5,54C 291.704,56.8688 294.537,60.0354 297,63.5C 301.629,57.8652 307.129,53.3652 313.5,50C 316.964,49.1834 320.298,49.5167 323.5,51C 328.722,55.7187 333.388,60.8853 337.5,66.5C 342.032,67.8445 346.365,69.6779 350.5,72C 354.299,76.8006 358.466,81.3006 363,85.5C 366.263,96.8398 362.097,102.006 350.5,101C 343.503,96.7296 336.837,97.3963 330.5,103C 324.443,109.14 323.11,116.14 326.5,124C 337.334,125.873 347.001,123.206 355.5,116C 360,112.167 364.5,108.333 369,104.5C 371.797,100.701 374.964,97.2012 378.5,94C 372.055,90.7424 368.721,85.5757 368.5,78.5C 364.938,78.0348 361.605,76.8681 358.5,75C 353.635,69.8 348.468,64.9666 343,60.5C 333.022,43.5731 336.189,29.4064 352.5,18C 363.992,12.9534 375.992,11.2868 388.5,13C 405.576,14.5928 422.576,16.7595 439.5,19.5C 444.141,17.4527 448.974,16.1194 454,15.5C 457.129,15.3291 459.963,16.1624 462.5,18C 467.378,23.2095 471.878,28.7095 476,34.5C 477.011,38.9822 475.844,42.8155 472.5,46C 469.036,48.0465 465.37,49.7132 461.5,51C 455.833,56.6667 450.167,62.3333 444.5,68C 446.683,70.3504 449.016,72.517 451.5,74.5C 456.712,69.2791 462.045,64.1124 467.5,59C 479.376,52.1972 491.376,51.8638 503.5,58C 509.054,63.0512 514.054,68.5512 518.5,74.5C 521.539,71.3121 525.206,69.1454 529.5,68C 547.627,46.2462 565.794,46.0796 584,67.5C 586.804,71.4432 588.804,75.7766 590,80.5C 600.297,66.4358 613.797,56.9358 630.5,52C 639.015,50.0524 646.515,51.8858 653,57.5C 662.1,46.397 671.933,35.897 682.5,26C 688.06,21.0143 694.06,20.3476 700.5,24C 705.415,28.2436 709.581,33.0769 713,38.5C 713.667,41.1667 713.667,43.8333 713,46.5C 697.708,68.136 680.542,88.3027 661.5,107C 664.965,111.467 668.798,115.633 673,119.5C 674.899,123.197 674.899,126.864 673,130.5C 664.729,139.384 654.896,145.884 643.5,150C 634.814,151.743 627.98,148.909 623,141.5C 616.467,146.432 609.134,149.432 601,150.5C 597.368,149.717 593.868,148.551 590.5,147C 587.333,143.833 584.167,140.667 581,137.5C 571.745,143.265 561.745,145.265 551,143.5C 545.335,146.056 539.501,148.223 533.5,150C 527.815,150.913 522.482,149.913 517.5,147C 511.273,141.109 505.44,134.943 500,128.5C 492.309,136.863 483.476,143.697 473.5,149C 459.816,153.729 448.483,150.395 439.5,139C 436.493,139.703 433.493,139.369 430.5,138C 425.366,133.867 420.532,129.367 416,124.5C 412.899,117.65 414.399,112.15 420.5,108C 419,106.5 417.5,105 416,103.5C 405.573,117.262 393.74,129.762 380.5,141C 371.365,148.4 361.032,153.4 349.5,156C 334.195,157.681 321.528,152.681 311.5,141C 304.178,142.394 297.178,141.394 290.5,138C 289.333,136.833 288.167,135.667 287,134.5C 278.288,143.022 267.955,148.355 256,150.5C 248.588,149.765 242.588,146.431 238,140.5C 231.552,145.723 224.218,149.057 216,150.5C 211.944,150.02 208.111,148.853 204.5,147C 202.284,144.447 199.784,142.28 197,140.5C 190.16,146.061 182.327,149.395 173.5,150.5C 170.362,150.132 167.362,149.299 164.5,148C 160.989,145.153 157.489,142.32 154,139.5C 144.15,143.503 133.983,145.17 123.5,144.5C 104.515,171.772 79.1815,179.938 47.5,169C 42.9022,166.73 38.5689,164.063 34.5,161C 28.6667,155.167 22.8333,149.333 17,143.5C 2.74267,118.709 6.576,97.2093 28.5,79C 37.3543,73.4284 47.021,70.7617 57.5,71C 42.4311,58.0222 37.2645,41.8556 42,22.5C 45.4064,16.7001 50.2397,14.8667 56.5,17C 61.3333,21.8333 66.1667,26.6667 71,31.5C 71.8687,33.5806 72.3687,35.7473 72.5,38C 70.8607,44.6307 71.8607,50.7973 75.5,56.5C 84.6728,62.2927 94.6728,65.2927 105.5,65.5C 109.67,42.5219 122.003,25.6885 142.5,15C 146.86,13.4171 151.194,12.2505 155.5,11.5 Z M 385.5,43.5 C 395.191,44.0019 404.858,44.8353 414.5,46C 414.957,46.414 415.291,46.914 415.5,47.5C 409.312,54.5204 403.312,61.6871 397.5,69C 394.854,69.4974 392.187,69.6641 389.5,69.5C 389.752,66.6802 389.252,64.0135 388,61.5C 383.113,56.6126 378.279,51.7792 373.5,47C 377.395,45.1922 381.395,44.0255 385.5,43.5 Z M 154.5,91.5 C 148.095,98.2422 141.095,104.242 133.5,109.5C 133.203,105.233 133.536,101.066 134.5,97C 141.186,95.1624 147.852,93.329 154.5,91.5 Z M 95.5,95.5 C 97.3093,94.7093 99.3093,94.7093 101.5,95.5C 101.664,98.1873 101.497,100.854 101,103.5C 99.884,100.244 98.0507,97.5777 95.5,95.5 Z"/></g>
<g><path style="opacity:1" fill="#e1cf37" d="M 149.5,20.5 C 173.986,19.1269 181.486,29.7936 172,52.5C 165.588,63.4704 156.421,71.3037 144.5,76C 137.309,78.4645 129.975,80.2978 122.5,81.5C 121.52,78.9135 121.187,76.2469 121.5,73.5C 137.929,72.5353 151.429,65.8686 162,53.5C 166.84,47.6493 168.84,40.9826 168,33.5C 165.657,29.5758 162.157,27.5758 157.5,27.5C 141.996,31.3459 131.162,40.6793 125,55.5C 122.928,61.0482 121.262,66.7148 120,72.5C 118.293,87.5322 116.46,102.532 114.5,117.5C 111.145,117.632 108.811,116.299 107.5,113.5C 109.189,99.8653 110.689,86.1986 112,72.5C 115.576,48.4667 128.076,31.1333 149.5,20.5 Z"/></g>
<g><path style="opacity:1" fill="#e1ce36" d="M 370.5,20.5 C 377.175,20.3337 383.842,20.5004 390.5,21C 408.983,23.3869 427.483,25.5536 446,27.5C 449.167,27.3333 452.333,27.1667 455.5,27C 455.833,26.6667 456.167,26.3333 456.5,26C 448.875,25.5609 448.708,24.7275 456,23.5C 460.749,23.5864 462.415,25.9197 461,30.5C 456.304,33.9795 450.97,35.3129 445,34.5C 429.12,33.1364 413.287,31.3031 397.5,29C 387.833,28.3333 378.167,28.3333 368.5,29C 357.268,31.6708 352.768,38.5041 355,49.5C 356.167,52 358,53.8333 360.5,55C 364.826,54.9068 369.159,54.9068 373.5,55C 374.935,57.2672 374.602,59.2672 372.5,61C 355,65.3358 346.166,58.5024 346,40.5C 350.42,29.2469 358.587,22.5802 370.5,20.5 Z"/></g>
<g><path style="opacity:1" fill="#e1cf37" d="M 51.5,23.5 C 53.3904,23.2965 54.8904,23.9632 56,25.5C 53.967,37.8705 57.1337,48.7038 65.5,58C 78.2058,68.6248 92.8725,73.7914 109.5,73.5C 109.5,76.1667 109.5,78.8333 109.5,81.5C 91.4841,81.662 75.4841,76.162 61.5,65C 48.9034,53.1236 45.5701,39.2902 51.5,23.5 Z"/></g>
<g><path style="opacity:1" fill="#e1cd36" d="M 644.5,97.5 C 658.397,76.4316 674.23,56.7649 692,38.5C 692.688,37.6683 692.521,37.0016 691.5,36.5C 673.162,55.5376 656.495,75.8709 641.5,97.5C 635.392,106.043 631.225,115.376 629,125.5C 631.498,126.598 633.998,126.432 636.5,125C 641.833,121 647.167,117 652.5,113C 657.1,111.417 658.934,112.917 658,117.5C 650.354,126.321 640.854,131.988 629.5,134.5C 627.074,134.596 624.907,133.93 623,132.5C 621.48,128.625 621.146,124.625 622,120.5C 628.974,103.887 637.974,88.5534 649,74.5C 660.05,59.777 672.217,45.9437 685.5,33C 687.806,30.861 690.473,29.361 693.5,28.5C 697.778,30.3395 698.611,33.3395 696,37.5C 680.091,58.5757 662.925,78.5757 644.5,97.5 Z"/></g>
<g><path style="opacity:1" fill="#e1cd36" d="M 437.5,36.5 C 441.182,36.3347 444.848,36.5014 448.5,37C 436.115,48.6491 424.782,61.1491 414.5,74.5C 411.216,75.657 407.882,75.8236 404.5,75C 414.916,61.6698 425.916,48.8365 437.5,36.5 Z"/></g>
<g><path style="opacity:1" fill="#e1ce36" d="M 209.5,42.5 C 213.487,42.6518 214.987,44.6518 214,48.5C 211.927,53.2822 208.427,55.4489 203.5,55C 202.424,53.2739 202.257,51.4406 203,49.5C 205.4,47.2707 207.567,44.9374 209.5,42.5 Z"/></g>
<g><path style="opacity:1" fill="#bb401c" d="M 644.5,97.5 C 643.472,100.098 642.472,100.098 641.5,97.5C 656.495,75.8709 673.162,55.5376 691.5,36.5C 692.521,37.0016 692.688,37.6683 692,38.5C 674.23,56.7649 658.397,76.4316 644.5,97.5 Z"/></g>
<g><path style="opacity:1" fill="#e1ce36" d="M 278.5,57.5 C 283.351,56.8681 285.851,58.8681 286,63.5C 277.458,75.7154 267.791,87.0488 257,97.5C 263.693,86.4344 271.693,76.101 281,66.5C 281.688,65.6683 281.521,65.0016 280.5,64.5C 267.384,78.0723 256.218,93.0723 247,109.5C 243.827,114.729 242.994,120.229 244.5,126C 247.594,126.652 250.594,126.318 253.5,125C 261.858,120.313 269.358,114.48 276,107.5C 276.781,110.834 277.114,114.167 277,117.5C 270.283,123.777 262.783,128.944 254.5,133C 243.107,137.309 236.773,133.476 235.5,121.5C 236.29,116.295 237.79,111.295 240,106.5C 250.059,87.9466 262.892,71.6132 278.5,57.5 Z"/></g>
<g><path style="opacity:1" fill="#e1ce36" d="M 316.5,57.5 C 322.375,57.6364 323.875,60.303 321,65.5C 311.045,78.457 300.712,91.1236 290,103.5C 291.012,99.4019 292.679,95.4019 295,91.5C 301.776,81.8209 309.609,72.9875 318.5,65C 317.5,64.3333 316.5,64.3333 315.5,65C 309.333,71.8333 303.167,78.6667 297,85.5C 292.391,91.1234 289.057,97.4567 287,104.5C 285.982,116.826 290.982,120.159 302,114.5C 300.671,91.9835 311.171,78.6502 333.5,74.5C 339.237,74.556 344.403,76.2226 349,79.5C 349.743,81.4406 349.576,83.2739 348.5,85C 343.691,84.364 338.858,83.5306 334,82.5C 322.029,83.8187 314.029,90.1521 310,101.5C 307.816,116.306 313.649,126.473 327.5,132C 337.457,133.716 346.79,132.049 355.5,127C 371.5,116.333 384.833,103 395.5,87C 398.554,86.1786 401.554,86.3452 404.5,87.5C 393.101,104.068 379.434,118.568 363.5,131C 351.645,139.438 338.645,142.104 324.5,139C 315.889,135.892 309.222,130.392 304.5,122.5C 290.07,129.285 281.403,124.952 278.5,109.5C 280.088,100.659 283.588,92.6588 289,85.5C 297.03,74.9709 306.196,65.6376 316.5,57.5 Z"/></g>
<g><path style="opacity:1" fill="#e1cd36" d="M 238.5,57.5 C 243.325,57.4881 245.491,59.8214 245,64.5C 236.412,75.759 227.079,86.4256 217,96.5C 216.333,95.8333 216.333,95.1667 217,94.5C 224.644,84.6885 232.477,75.0218 240.5,65.5C 226.257,77.7808 214.757,92.7808 206,110.5C 203.586,115.549 203.086,120.715 204.5,126C 210.793,126.032 216.459,124.032 221.5,120C 227.063,113.746 233.063,108.413 239.5,104C 236.883,108.516 235.049,113.349 234,118.5C 227.23,125.269 219.397,130.435 210.5,134C 197.867,134.97 193.033,129.137 196,116.5C 204.937,93.0631 219.104,73.3965 238.5,57.5 Z"/></g>
<g><path style="opacity:1" fill="#e1cf37" d="M 554.5,59.5 C 561.206,58.4075 567.039,60.0742 572,64.5C 575.333,73.2184 574.999,81.8851 571,90.5C 566.054,100.778 559.554,109.944 551.5,118C 547.882,118.966 544.549,118.466 541.5,116.5C 552.632,106.901 560.798,95.2347 566,81.5C 567.739,66.5695 562.239,63.0695 549.5,71C 538.101,80.9601 532.601,93.4601 533,108.5C 537.11,118.805 544.61,122.639 555.5,120C 566.056,115.121 575.223,108.288 583,99.5C 580.559,114.618 571.726,124.118 556.5,128C 534.365,129.865 524.198,119.698 526,97.5C 529.509,80.0715 539.009,67.4048 554.5,59.5 Z"/></g>
<g><path style="opacity:1" fill="#e1ce36" d="M 192.5,75.5 C 193.048,73.6064 194.048,71.9397 195.5,70.5C 194.833,69.1667 194.167,69.1667 193.5,70.5C 182.647,82.5182 173.147,95.5182 165,109.5C 163.098,113.13 161.932,116.963 161.5,121C 161.544,122.764 161.878,124.431 162.5,126C 165.257,126.584 167.923,126.25 170.5,125C 180.301,118.678 189.468,111.512 198,103.5C 196.702,108.073 195.369,112.74 194,117.5C 187.283,123.777 179.783,128.944 171.5,133C 165.067,135.847 159.567,134.681 155,129.5C 152.849,123.37 153.182,117.37 156,111.5C 165.802,92.693 178.302,75.8597 193.5,61C 195.5,60.3333 197.5,60.3333 199.5,61C 200.078,67.0186 197.744,71.8519 192.5,75.5 Z"/></g>
<g><path style="opacity:1" fill="#e1ce36" d="M 482.5,61.5 C 503.357,60.1923 510.523,69.5256 504,89.5C 501.421,94.5877 497.254,97.0877 491.5,97C 497.172,90.1474 499.338,82.3141 498,73.5C 497.167,71.3333 495.667,69.8333 493.5,69C 482.674,67.4969 474.84,71.6636 470,81.5C 466.77,91.1829 469.936,97.3495 479.5,100C 492.926,100.692 504.926,96.8582 515.5,88.5C 515.833,88.6667 516.167,88.8333 516.5,89C 513.585,92.828 510.919,96.828 508.5,101C 496.7,107.77 484.367,109.103 471.5,105C 461.099,97.7535 458.599,88.2535 464,76.5C 468.375,69.2369 474.541,64.2369 482.5,61.5 Z"/></g>
<g><path style="opacity:1" fill="#e1ce36" d="M 627.5,62.5 C 633.105,61.9081 638.439,62.7415 643.5,65C 646.791,67.332 647.291,70.1653 645,73.5C 627.56,76.3868 612.56,84.0534 600,96.5C 608.364,80.8426 621.53,72.3426 639.5,71C 630.405,69.0159 622.072,71.0159 614.5,77C 602.606,86.9013 593.773,99.068 588,113.5C 587.333,116.833 587.333,120.167 588,123.5C 588.899,125.368 590.399,126.368 592.5,126.5C 596.389,125.556 600.056,124.056 603.5,122C 611.286,116.549 618.786,110.715 626,104.5C 624.509,109.173 622.675,113.84 620.5,118.5C 612.556,126.557 603.056,131.89 592,134.5C 584.008,133.034 580.174,128.2 580.5,120C 580.437,111.857 582.603,104.357 587,97.5C 596.407,80.9147 609.907,69.248 627.5,62.5 Z"/></g>
<g><path style="opacity:1" fill="#e1ce36" d="M 430.5,69.5 C 440.457,68.2646 442.79,71.7646 437.5,80C 435.35,81.5899 433.017,82.2566 430.5,82C 431.975,79.6908 433.642,77.5241 435.5,75.5C 434.726,74.2888 433.893,74.2888 433,75.5C 427.786,81.4696 425.119,88.4696 425,96.5C 419.859,98.8256 417.692,97.1589 418.5,91.5C 419.397,82.3656 423.397,75.0322 430.5,69.5 Z"/></g>
<g><path style="opacity:1" fill="#e1cb36" d="M 379.5,77.5 C 393.171,77.3334 406.837,77.5001 420.5,78C 419.214,80.0223 418.214,82.1889 417.5,84.5C 404.846,85.666 392.18,85.8326 379.5,85C 376.914,82.506 376.914,80.006 379.5,77.5 Z"/></g>
<g><path style="opacity:1" fill="#e1ce36" d="M 530.5,76.5 C 531.239,76.369 531.906,76.5357 532.5,77C 529.193,82.4505 526.027,87.9505 523,93.5C 517.162,102.004 514.829,111.337 516,121.5C 516.273,123.329 517.107,124.829 518.5,126C 522.965,126.734 527.299,126.234 531.5,124.5C 533.842,125.336 535.842,126.67 537.5,128.5C 531.357,133.287 524.357,135.12 516.5,134C 512.942,132.108 510.442,129.275 509,125.5C 506.205,114 508.205,103.333 515,93.5C 519.323,87.0128 524.49,81.3461 530.5,76.5 Z"/></g>
<g><path style="opacity:1" fill="#e1ce37" d="M 47.5,79.5 C 62.2182,77.2355 74.3849,81.5689 84,92.5C 90.4098,105.075 89.4098,117.075 81,128.5C 71.1166,137.192 60.2832,138.692 48.5,133C 40.5077,124.374 40.5077,115.707 48.5,107C 52.6387,103.963 57.3054,102.463 62.5,102.5C 67.9465,102.99 73.2798,103.99 78.5,105.5C 78.5,108.167 78.5,110.833 78.5,113.5C 71.6225,111.576 64.6225,110.742 57.5,111C 50.3802,114.139 48.7135,119.139 52.5,126C 64.2034,131.589 73.0367,128.422 79,116.5C 82.7632,104.116 78.9299,94.9498 67.5,89C 49.5144,83.9198 36.0144,89.4198 27,105.5C 21.264,127.189 29.0973,141.689 50.5,149C 66.2429,152.469 80.5762,149.469 93.5,140C 96.8847,136.283 99.8847,132.283 102.5,128C 105.387,127.277 108.053,127.777 110.5,129.5C 98.9335,150.787 80.9335,160.287 56.5,158C 28.9015,153.415 15.7349,137.249 17,109.5C 21.7881,93.8774 31.9547,83.8774 47.5,79.5 Z"/></g>
<g><path style="opacity:1" fill="#e1cd36" d="M 459.5,94.5 C 459.167,94.5 458.833,94.5 458.5,94.5C 458.649,93.448 458.483,92.448 458,91.5C 450.088,99.6503 445.755,109.317 445,120.5C 447.581,127.187 452.414,129.354 459.5,127C 468.811,123.706 476.478,118.04 482.5,110C 485.188,109.608 487.855,109.108 490.5,108.5C 491.167,108.833 491.833,109.167 492.5,109.5C 484.285,121.104 473.618,129.604 460.5,135C 443.139,136.639 435.639,128.806 438,111.5C 442.216,98.6294 449.55,87.9627 460,79.5C 459.674,84.4399 459.508,89.4399 459.5,94.5 Z"/></g>
<g><path style="opacity:1" fill="#dab531" d="M 192.5,75.5 C 188.17,82.1332 183.336,88.4665 178,94.5C 178.398,92.3687 179.398,90.3687 181,88.5C 184.699,83.9728 188.532,79.6395 192.5,75.5 Z"/></g>
<g><path style="opacity:1" fill="#d1902b" d="M 458.5,94.5 C 458.833,94.5 459.167,94.5 459.5,94.5C 458.207,96.2959 456.707,97.9625 455,99.5C 455.077,97.2285 456.243,95.5618 458.5,94.5 Z"/></g>
<g><path style="opacity:1" fill="#e1cd36" d="M 160.5,96.5 C 161.043,96.56 161.376,96.8933 161.5,97.5C 157.612,102.609 154.779,108.275 153,114.5C 140.373,127.924 125.207,131.757 107.5,126C 100.599,124.212 94.2654,121.378 88.5,117.5C 89.0601,115.146 89.7267,112.813 90.5,110.5C 98.4317,114.755 106.765,117.921 115.5,120C 121.902,120.818 128.235,120.484 134.5,119C 144.172,112.664 152.839,105.164 160.5,96.5 Z"/></g>
<g><path style="opacity:1" fill="#e1cc36" d="M 437.5,104.5 C 438.043,104.56 438.376,104.893 438.5,105.5C 436.424,109.23 435.257,113.23 435,117.5C 432.214,120.35 429.047,122.184 425.5,123C 423.675,121.534 423.175,119.701 424,117.5C 428.395,112.936 432.895,108.602 437.5,104.5 Z"/></g>
</svg>
